<?xml version="1.0" encoding="UTF-8" standalone="no"?>
<!-- Created with Inkscape (http://www.inkscape.org/) -->

<svg
   xmlns:dc="http://purl.org/dc/elements/1.1/"
   xmlns:cc="http://creativecommons.org/ns#"
   xmlns:rdf="http://www.w3.org/1999/02/22-rdf-syntax-ns#"
   xmlns:svg="http://www.w3.org/2000/svg"
   xmlns="http://www.w3.org/2000/svg"
   xmlns:sodipodi="http://sodipodi.sourceforge.net/DTD/sodipodi-0.dtd"
   xmlns:inkscape="http://www.inkscape.org/namespaces/inkscape"
   version="1.1"
   id="svg2"
   width="48"
   height="48"
   viewBox="0 0 48.000002 48"
   sodipodi:docname="on.svg"
   inkscape:version="0.92.1 r15371">
  <metadata
     id="metadata8">
    <rdf:RDF>
      <cc:Work
         rdf:about="">
        <dc:format>image/svg+xml</dc:format>
        <dc:type
           rdf:resource="http://purl.org/dc/dcmitype/StillImage" />
        <dc:title></dc:title>
      </cc:Work>
    </rdf:RDF>
  </metadata>
  <defs
     id="defs6" />
  <sodipodi:namedview
     pagecolor="#1a262f"
     bordercolor="#666666"
     borderopacity="1"
     objecttolerance="10"
     gridtolerance="10"
     guidetolerance="10"
     inkscape:pageopacity="0"
     inkscape:pageshadow="2"
     inkscape:window-width="1920"
     inkscape:window-height="1017"
     id="namedview4"
     showgrid="false"
     inkscape:zoom="0.43603586"
     inkscape:cx="729.31733"
     inkscape:cy="562.12369"
     inkscape:window-x="-8"
     inkscape:window-y="-8"
     inkscape:window-maximized="1"
     inkscape:current-layer="svg2" />
  <path
     style="fill:#ffffff;stroke-width:0.45370713"
     d="m 24.18842,4.1353352 c -0.749901,0 -0.757156,0.024772 -0.843614,2.999603 -0.06382,2.1960378 0.01778,3.0658578 0.303063,3.2468418 0.542915,0.344459 0.717424,0.318584 1.120089,-0.166592 0.226704,-0.2731683 0.320463,-1.4267505 0.264071,-3.2521594 -0.08625,-2.7919368 -0.09716,-2.8276934 -0.843609,-2.8276934 z"
     id="path4277"
     inkscape:connector-curvature="0" />
  <path
     style="fill:#ffffff;stroke-width:0.45370713"
     d="m 14.645502,6.5226105 c -0.229476,0.00408 -0.500888,0.1163078 -0.681445,0.2968606 -0.381971,0.381967 -0.310445,0.6624714 0.558273,2.2038461 0.547525,0.9714777 1.25916,2.1478358 1.581773,2.6141338 0.632581,0.914319 1.510981,0.984535 1.674814,0.133807 0.124915,-0.648624 -2.301066,-4.9770448 -2.923398,-5.2158581 -0.06242,-0.023956 -0.133521,-0.03421 -0.210017,-0.032803 z"
     id="path4271"
     inkscape:connector-curvature="0" />
  <path
     style="fill:#ffffff;stroke-width:0.45370713"
     d="m 33.727789,6.5545061 c -0.423073,0 -1.015315,0.719879 -2.066495,2.5104523 -1.214325,2.0684776 -1.407118,2.5889526 -1.097935,2.9615006 0.663746,0.799763 1.293483,0.320041 2.618562,-1.995599 1.373053,-2.39948 1.542123,-3.4763539 0.545868,-3.4763539 z"
     id="path4269"
     inkscape:connector-curvature="0" />
  <path
     style="fill:#ffffff;stroke-width:0.45370713"
     d="m 24.170015,12.652661 c -4.184341,-0.0074 -8.397056,2.176243 -10.519448,6.7037 -0.703197,1.500051 -0.804621,2.098572 -0.804621,4.74177 0,2.633811 0.102113,3.239124 0.789556,4.687721 2.219862,4.677743 6.864686,7.227218 12.065772,6.623057 0.914978,-0.106285 2.172019,-0.407306 2.794024,-0.669041 5.451627,-2.293966 8.340462,-8.253704 6.707244,-13.838952 -1.584028,-5.417045 -6.290273,-8.239843 -11.032527,-8.248255 z m 0.02126,3.508254 c 0.137954,0.0014 0.27674,0.07884 0.462571,0.233061 0.36326,0.301479 0.446402,0.923389 0.378378,2.835669 -0.07827,2.200906 -0.149596,2.457605 -0.704482,2.537035 -0.339564,0.04861 -0.714169,-0.0079 -0.832092,-0.125831 -0.117928,-0.117928 -0.214448,-1.26401 -0.214448,-2.546785 0,-1.704179 0.122193,-2.433826 0.453708,-2.708954 0.181237,-0.150417 0.318406,-0.225628 0.456365,-0.224195 z m 1.963697,2.029278 1.058068,0.56536 c 0.582256,0.311016 1.46728,1.141695 1.966357,1.845844 0.794628,1.121137 0.907415,1.536701 0.907415,3.345205 0,1.804883 -0.115269,2.23086 -0.911852,3.377106 -1.646576,2.369367 -4.823828,3.309353 -7.403752,2.190552 -3.195486,-1.385744 -4.52514,-5.04471 -2.9872,-8.221668 0.57094,-1.179402 2.63305,-3.092653 3.332798,-3.092653 0.141398,0 0.256982,0.539371 0.256982,1.198957 0,0.905912 -0.154616,1.281659 -0.630936,1.536579 -0.743613,0.397969 -1.486069,2.027177 -1.486069,3.259251 0,2.097597 2.455891,3.97103 4.662903,3.556991 1.335079,-0.250465 2.818043,-1.708852 3.062524,-3.012012 0.220846,-1.177252 -0.456557,-3.014403 -1.390368,-3.770556 -0.481946,-0.390251 -0.6098,-0.783466 -0.535229,-1.645573 z"
     id="path4257"
     inkscape:connector-curvature="0" />
  <path
     style="fill:#ffffff;stroke-width:0.45370713"
     d="m 40.928616,13.757107 c -0.559793,0.0067 -1.481871,0.382044 -2.772754,1.126291 -2.3516,1.3558 -2.613843,1.607766 -2.358923,2.27208 0.274125,0.714361 1.112462,0.509676 3.515345,-0.858677 1.617629,-0.921185 2.268536,-1.462793 2.268536,-1.88749 0,-0.440064 -0.216809,-0.657386 -0.652204,-0.652204 z"
     id="path4251"
     inkscape:connector-curvature="0" />
  <path
     style="fill:#ffffff;stroke-width:0.45370713"
     d="m 7.4446758,13.776616 c -0.4415841,-0.02228 -0.6486606,0.191773 -0.6486606,0.637137 0,0.417741 0.6426807,0.990842 2.1178913,1.890153 2.1965235,1.339044 3.5434895,1.568089 3.7209295,0.631823 0.06796,-0.358569 -0.60006,-0.916865 -2.265877,-1.891922 C 8.9685011,14.224062 8.0124267,13.805222 7.4446758,13.776616 Z"
     id="path4249"
     inkscape:connector-curvature="0" />
  <path
     style="fill:#ffffff;stroke-width:0.45370713"
     d="m 7.401256,23.039506 c -2.1193613,0 -2.8908766,0.110219 -3.1759499,0.453707 -0.3004086,0.361976 -0.3004086,0.545442 0,0.907414 0.2850733,0.343493 1.0565886,0.453707 3.1759499,0.453707 2.1193613,0 2.890881,-0.110214 3.17595,-0.453707 0.300413,-0.361972 0.300413,-0.545438 0,-0.907414 -0.285069,-0.343488 -1.0565887,-0.453707 -3.17595,-0.453707 z"
     id="path4223"
     inkscape:connector-curvature="0" />
  <path
     style="fill:#ffffff;stroke-width:0.45370713"
     d="m 39.649021,23.082925 c -1.178636,0.0099 -1.610057,0.12197 -1.840526,0.399653 -0.311924,0.375842 -0.311924,0.552842 0,0.928684 0.307291,0.370266 0.972131,0.446125 3.288487,0.377498 C 43.969388,24.703662 44,24.695019 44,23.94692 44,23.19882 43.96937,23.190182 41.096982,23.10508 40.517898,23.08793 40.0419,23.07963 39.649021,23.08294 Z"
     id="path4219"
     inkscape:connector-curvature="0" />
  <path
     style="fill:#ffffff;stroke-width:0.45370713"
     d="m 11.89136,30.406099 c -0.568464,0.0274 -1.52075,0.441892 -2.902129,1.253012 -1.6130604,0.947159 -2.3438601,1.555675 -2.3438601,1.94952 0,0.492009 0.3578569,0.842394 0.9074142,0.889697 0.083178,0.0072 1.239841,-0.634341 2.5707139,-1.425815 1.709822,-1.016835 2.420065,-1.612893 2.420065,-2.031047 0,-0.444171 -0.210067,-0.656673 -0.652204,-0.635367 z"
     id="path4193"
     inkscape:connector-curvature="0" />
  <path
     style="fill:#ffffff;stroke-width:0.45370713"
     d="m 36.473071,30.407913 c -0.43309,-0.01388 -0.639799,0.199074 -0.639799,0.634478 0,0.408886 0.655162,0.988333 2.117891,1.87509 2.287863,1.386992 3.629657,1.596877 3.629657,0.567134 0,-0.424139 -0.65303,-0.969268 -2.268536,-1.893696 -1.35045,-0.772764 -2.282387,-1.165175 -2.839213,-1.183006 z"
     id="path4191"
     inkscape:connector-curvature="0" />
  <path
     style="fill:#ffffff;stroke-width:0.45370713"
     d="m 17.092154,35.591876 c -0.423077,0 -1.015319,0.719879 -2.066495,2.510452 -1.214324,2.068478 -1.407118,2.588953 -1.097935,2.961501 0.663747,0.799763 1.293487,0.32004 2.618566,-1.995599 1.373059,-2.39948 1.542115,-3.476354 0.545864,-3.476354 z"
     id="path4169"
     inkscape:connector-curvature="0" />
  <path
     style="fill:#ffffff;stroke-width:0.45370713"
     d="m 31.294431,35.591876 c -0.989817,0 -0.873182,1.124277 0.333189,3.209624 1.679124,2.902541 2.042848,3.201298 2.794908,2.295118 0.489627,-0.589964 -2.303149,-5.504742 -3.128097,-5.504742 z"
     id="path4167"
     inkscape:connector-curvature="0" />
  <path
     style="fill:#ffffff;stroke-width:0.45370713"
     d="m 23.980173,37.395185 c -0.510952,0.05558 -0.699167,1.059515 -0.699167,3.325705 0,1.532318 0.09652,2.882574 0.214444,3.000497 0.117923,0.117923 0.492531,0.174436 0.832095,0.125831 0.564611,-0.08082 0.624981,-0.333738 0.705374,-2.957073 0.07422,-2.422097 0.0075,-2.926883 -0.428899,-3.245952 -0.247053,-0.180653 -0.45353,-0.267538 -0.623847,-0.249008 z"
     id="path4165"
     inkscape:connector-curvature="0" />
</svg>
