<?xml version="1.0" encoding="UTF-8" standalone="no"?>
<!-- Created with Inkscape (http://www.inkscape.org/) -->

<svg
   xmlns:dc="http://purl.org/dc/elements/1.1/"
   xmlns:cc="http://creativecommons.org/ns#"
   xmlns:rdf="http://www.w3.org/1999/02/22-rdf-syntax-ns#"
   xmlns:svg="http://www.w3.org/2000/svg"
   xmlns="http://www.w3.org/2000/svg"
   xmlns:sodipodi="http://sodipodi.sourceforge.net/DTD/sodipodi-0.dtd"
   xmlns:inkscape="http://www.inkscape.org/namespaces/inkscape"
   version="1.1"
   id="svg2"
   width="48"
   height="48"
   viewBox="0 0 48.000002 48"
   sodipodi:docname="eye.svg"
   inkscape:version="0.92.1 r15371">
  <metadata
     id="metadata8">
    <rdf:RDF>
      <cc:Work
         rdf:about="">
        <dc:format>image/svg+xml</dc:format>
        <dc:type
           rdf:resource="http://purl.org/dc/dcmitype/StillImage" />
        <dc:title></dc:title>
      </cc:Work>
    </rdf:RDF>
  </metadata>
  <defs
     id="defs6" />
  <sodipodi:namedview
     pagecolor="#1a262f"
     bordercolor="#666666"
     borderopacity="1"
     objecttolerance="10"
     gridtolerance="10"
     guidetolerance="10"
     inkscape:pageopacity="0"
     inkscape:pageshadow="2"
     inkscape:window-width="1920"
     inkscape:window-height="1017"
     id="namedview4"
     showgrid="false"
     inkscape:zoom="0.43603586"
     inkscape:cx="573.51629"
     inkscape:cy="594.87321"
     inkscape:window-x="-8"
     inkscape:window-y="-8"
     inkscape:window-maximized="1"
     inkscape:current-layer="svg2" />
  <path
     style="fill:#ffffff;stroke-width:0.31379357"
     d="m 23.792619,13.803912 c -2.649152,0.0039 -5.262316,0.361951 -7.427469,1.073764 -3.538744,1.163399 -7.4047622,3.530281 -10.0781672,6.169228 -1.806601,1.783317 -2.433133,2.677755 -2.259069,3.226191 0.22141,0.6976 3.77875,4.169174 5.538579,5.404971 5.6683612,3.980456 12.5555762,5.386041 19.5802282,3.996579 2.042985,-0.404097 5.122796,-1.534808 6.987424,-2.565507 2.345026,-1.296253 5.432758,-3.900636 7.192123,-6.066879 0.806293,-0.992764 0.806192,-0.993 0.431466,-1.568968 -0.696386,-1.070394 -2.906058,-3.238403 -4.795158,-4.704453 -2.008825,-1.558964 -5.127434,-3.180401 -7.525529,-3.912613 -2.309985,-0.705311 -4.995277,-1.056163 -7.644428,-1.052313 z m 0.321148,1.759572 c 2.265731,0.06393 4.551736,0.995426 6.03501,2.645183 1.246915,1.386873 2.090116,3.110764 1.958759,4.005772 -0.0569,0.387667 0.02331,0.8679 0.186315,1.116663 0.288932,0.440961 0.184931,2.390225 -0.127479,2.390225 -0.373401,0 -0.684503,-1.067689 -0.552204,-1.895018 0.112131,-0.701225 0.06666,-0.927006 -0.230441,-1.144245 -0.486276,-0.355572 -0.745529,-0.177708 -0.475595,0.326665 0.182562,0.341119 0.08708,0.480914 -0.647199,0.944444 -0.89311,0.563799 -0.88085,0.514276 -0.469463,1.820247 0.166517,0.528623 -0.396136,0.464003 -0.932802,-0.107251 -0.244677,-0.260449 -0.589147,-0.819049 -0.765484,-1.241079 -0.442285,-1.058533 -0.684088,-1.137 -1.024118,-0.333406 -0.38922,0.919836 -1.119572,1.569737 -1.423104,1.266204 -0.280638,-0.280638 -0.03551,-0.736363 0.304599,-0.566297 0.135876,0.06794 0.06399,-0.02419 -0.159347,-0.205315 -0.223343,-0.181115 -0.52815,-0.329728 -0.67723,-0.329728 -0.149077,0 -0.75135,-0.477405 -1.338526,-1.061504 -1.151989,-1.145939 -1.750611,-1.263995 -0.64965,-0.128094 0.769126,0.79354 0.824837,1.090135 0.261086,1.391848 -0.604455,0.323496 -0.819834,0.270869 -1.383266,-0.337084 -0.41395,-0.446657 -0.512979,-0.483691 -0.512979,-0.190604 0,0.199767 0.282414,0.61153 0.627587,0.914413 0.742134,0.651213 0.756307,0.750594 0.208992,1.446394 -0.230115,0.292543 -0.418596,0.793414 -0.418596,1.113597 0,0.748717 -0.948029,2.641815 -1.460489,2.916074 -0.568747,0.304386 -0.986187,0.259824 -1.131985,-0.120123 -0.06984,-0.181994 -0.126866,-0.512576 -0.126866,-0.734842 0,-0.482285 -0.332347,-1.077878 -1.05415,-1.889502 -0.492634,-0.55393 -0.579779,-0.579762 -1.195113,-0.347501 -0.364986,0.137768 -0.725238,0.188562 -0.801031,0.112768 -0.220889,-0.220889 -0.708597,-2.492798 -0.712164,-3.318734 -0.0019,-0.45244 0.170852,-0.978126 0.43024,-1.307882 0.238467,-0.303163 0.33301,-0.550978 0.209604,-0.550978 -0.123412,0 -0.224313,-0.18848 -0.224313,-0.418594 0,-0.406291 0.273543,-0.512909 1.098277,-0.429016 0.212636,0.02162 0.365888,-0.104474 0.365888,-0.30031 0,-0.192349 0.365053,-0.500535 0.850062,-0.71768 0.605973,-0.2713 0.756606,-0.416749 0.523398,-0.506237 -0.380641,-0.146068 -0.434359,-0.675293 -0.09009,-0.888061 0.130441,-0.08062 0.9031,-0.273264 1.717284,-0.4284 1.531065,-0.291731 2.24938,-0.117372 1.39675,0.338919 -0.252322,0.135041 -0.409987,0.294219 -0.350567,0.353633 0.133224,0.133227 1.392459,-0.592258 1.392459,-0.802258 0,-0.08346 -0.100321,-0.213784 -0.222474,-0.28928 -0.122157,-0.0755 -0.307966,-0.363376 -0.41308,-0.639844 -0.173164,-0.455455 -0.314641,-0.503798 -1.504003,-0.512365 l -1.312172,-0.0092 0.941381,-0.498882 c 1.167136,-0.618185 2.518848,-0.892096 3.878292,-0.853741 z m -5.835212,2.284198 c 0.022,0.0025 0.04155,0.0087 0.05822,0.01898 0.312454,0.193106 0.281204,0.446899 -0.103576,0.831676 -0.359821,0.35982 -0.838924,0.430352 -1.012475,0.149541 -0.149933,-0.242594 0.727717,-1.037612 1.057828,-1.000217 z m -0.710326,1.391847 c 0.550673,-0.0048 0.443325,0.35067 -0.313793,1.039441 -0.938243,0.853537 -1.31687,0.83214 -0.865384,-0.04903 0.394049,-0.769068 0.652243,-0.985802 1.179177,-0.990411 z m 3.150194,0.210216 c -0.137031,-0.0025 -0.311244,0.09629 -0.387339,0.219411 -0.07609,0.12312 -0.340644,0.305409 -0.58775,0.405111 -0.263449,0.106294 -0.319449,0.184946 -0.135447,0.189992 0.172587,0.0047 0.548934,-0.175821 0.836579,-0.400821 0.287645,-0.224999 0.410987,-0.411132 0.273957,-0.413693 z M 18.08366,21.65059 c -0.130435,0.0025 -0.288595,0.0544 -0.522785,0.142801 -0.370085,0.139692 -0.67294,0.30679 -0.67294,0.371403 0,0.182007 2.145672,0.815575 2.613312,0.771615 0.228941,-0.02153 0.449299,-0.215265 0.490302,-0.430242 0.04788,-0.251057 -0.01048,-0.337978 -0.163638,-0.243313 -0.13116,0.08106 -0.377733,0.03153 -0.547913,-0.109705 -0.258158,-0.214252 -0.288513,-0.191006 -0.183251,0.139124 0.09013,0.282652 -0.01513,0.231225 -0.368339,-0.17896 C 18.441581,21.780231 18.30105,21.646624 18.08366,21.65059 Z m 11.831611,3.035586 c 0.238555,0.01469 0.570589,0.212987 0.570589,0.400821 0,0.283929 -0.564408,0.278306 -0.74097,-0.0073 -0.07584,-0.122712 -0.08552,-0.275448 -0.02146,-0.339537 0.04302,-0.04302 0.112313,-0.05883 0.191831,-0.05393 z m 0.359146,0.859254 c 0.04237,-0.0074 0.08997,-0.0063 0.141574,0.0037 0.524823,0.101782 0.596851,0.590201 0.08703,0.590201 -0.25696,0 -0.435756,-0.13506 -0.435756,-0.329116 0,-0.146108 0.08003,-0.242509 0.207151,-0.264763 z m -7.439726,0.670489 c 0.198,-0.0078 0.203239,0.359102 -0.02268,1.019829 -0.440915,1.289591 -0.693778,1.444147 -0.693778,0.424723 0,-0.508364 0.135714,-0.999257 0.330341,-1.193884 0.166075,-0.166079 0.296114,-0.247097 0.386113,-0.250668 z m 8.772125,0.146479 c 0.09811,0.0031 0.163957,0.02146 0.18815,0.05822 0.265743,0.403743 -0.02827,1.228606 -0.870284,2.438644 -0.779225,1.1198 -0.827176,1.15037 -1.790829,1.15037 -0.714132,0 -1.043129,-0.09828 -1.17918,-0.352403 -0.319721,-0.597186 -0.216342,-1.753996 0.18938,-2.121172 0.51556,-0.466576 2.776013,-1.195688 3.462763,-1.17366 z m -3.026395,4.165732 c 0.259463,6.28e-4 0.441272,0.06164 0.441272,0.196121 0,0.744601 -4.236294,2.083125 -5.648283,1.784701 -0.172586,-0.03647 -0.666811,-0.12388 -1.098277,-0.194282 -0.591586,-0.09653 -0.784484,-0.227253 -0.784484,-0.531981 0,-1.032324 1.966093,-1.394586 3.96532,-0.730549 1.017943,0.338106 1.068932,0.335276 1.660288,-0.0858 0.383177,-0.272846 1.031725,-0.439251 1.464164,-0.438206 z"
     id="path3863"
     inkscape:connector-curvature="0" />
</svg>
