<?xml version="1.0" encoding="UTF-8" standalone="no"?>
<!-- Created with Inkscape (http://www.inkscape.org/) -->

<svg
   xmlns:dc="http://purl.org/dc/elements/1.1/"
   xmlns:cc="http://creativecommons.org/ns#"
   xmlns:rdf="http://www.w3.org/1999/02/22-rdf-syntax-ns#"
   xmlns:svg="http://www.w3.org/2000/svg"
   xmlns="http://www.w3.org/2000/svg"
   xmlns:sodipodi="http://sodipodi.sourceforge.net/DTD/sodipodi-0.dtd"
   xmlns:inkscape="http://www.inkscape.org/namespaces/inkscape"
   version="1.1"
   id="svg2"
   width="48"
   height="48"
   viewBox="0 0 48.000002 48"
   sodipodi:docname="heart.svg"
   inkscape:version="0.92.1 r15371">
  <metadata
     id="metadata8">
    <rdf:RDF>
      <cc:Work
         rdf:about="">
        <dc:format>image/svg+xml</dc:format>
        <dc:type
           rdf:resource="http://purl.org/dc/dcmitype/StillImage" />
        <dc:title></dc:title>
      </cc:Work>
    </rdf:RDF>
  </metadata>
  <defs
     id="defs6" />
  <sodipodi:namedview
     pagecolor="#1a262f"
     bordercolor="#666666"
     borderopacity="1"
     objecttolerance="10"
     gridtolerance="10"
     guidetolerance="10"
     inkscape:pageopacity="0"
     inkscape:pageshadow="2"
     inkscape:window-width="1920"
     inkscape:window-height="1017"
     id="namedview4"
     showgrid="false"
     inkscape:zoom="0.43603586"
     inkscape:cx="683.39924"
     inkscape:cy="435.03732"
     inkscape:window-x="-8"
     inkscape:window-y="-8"
     inkscape:window-maximized="1"
     inkscape:current-layer="svg2" />
  <path
     style="fill:#ffffff;stroke-width:0.34405217"
     d="m 34.268531,10.052864 c -0.144664,-0.01555 -0.315538,0.05208 -0.433427,0.182778 -0.155697,0.172614 -1.859127,5.577811 -3.785245,12.011587 -1.926114,6.433776 -3.576357,11.776434 -3.66698,11.873154 -0.09062,0.09672 -0.612158,-2.452548 -1.15916,-5.665431 -0.972842,-5.714115 -1.182098,-6.3864 -1.859358,-5.967829 -0.113041,0.06986 -0.82171,1.283139 -1.574441,2.695968 -2.137844,4.012609 -1.9019,4.123548 -2.647591,-1.244498 -0.357034,-2.570201 -0.734091,-4.905833 -0.837282,-5.189676 -0.479643,-1.319344 -1.214859,-0.199385 -3.7624,5.729941 l -0.66324,1.544206 -4.9397047,0.06182 c -4.7661306,0.05952 -4.9397015,0.07749 -4.9397015,0.520114 0,0.445699 0.153,0.458962 5.3805183,0.458962 h 5.3805219 l 1.251221,-2.810211 c 0.688187,-1.545365 1.315828,-2.809533 1.395022,-2.809533 0.0792,0 0.450178,2.193109 0.823846,4.87385 0.635427,4.558615 0.711311,4.878756 1.171254,4.944401 0.418402,0.05972 0.739533,-0.394036 2.155703,-3.042037 0.915472,-1.711784 1.713686,-3.063393 1.773345,-3.003737 0.05965,0.05966 0.555844,2.718941 1.102715,5.909364 1.244578,7.260887 1.146444,6.879096 1.741764,6.790327 0.430141,-0.06415 0.886423,-1.408236 4.072181,-11.999494 1.973173,-6.559922 3.697639,-12.288394 3.832283,-12.729926 l 0.244601,-0.803011 1.635593,3.400873 c 1.283569,2.669573 1.721589,3.383756 2.037432,3.322928 0.221288,-0.04261 0.436138,-0.254193 0.477775,-0.470385 0.08692,-0.451365 -3.645587,-8.27593 -4.074194,-8.540827 -0.03936,-0.02432 -0.08483,-0.0385 -0.133051,-0.04368 z"
     id="path4811"
     inkscape:connector-curvature="0" />
  <path
     style="fill:#ffffff;stroke-width:0.34405217"
     d="m 41.524539,21.915277 c -0.550349,0.009 -1.136026,0.235641 -1.694728,0.696169 l -0.85946,0.708262 -0.806372,-0.708262 c -1.446891,-1.270389 -3.37305,-0.663673 -4.009013,1.263318 -0.506751,1.535457 -0.164189,2.238645 2.352591,4.825466 1.27214,1.307536 2.384443,2.377449 2.471529,2.377449 0.08709,0 1.19872,-1.069913 2.470863,-2.377449 2.638646,-2.712081 2.910561,-3.329668 2.237684,-5.091569 -0.42724,-1.118717 -1.245847,-1.70833 -2.163094,-1.693384 z"
     id="path4767"
     inkscape:connector-curvature="0" />
</svg>
