<?xml version="1.0" encoding="UTF-8" standalone="no"?>
<!-- Created with Inkscape (http://www.inkscape.org/) -->

<svg
   xmlns:dc="http://purl.org/dc/elements/1.1/"
   xmlns:cc="http://creativecommons.org/ns#"
   xmlns:rdf="http://www.w3.org/1999/02/22-rdf-syntax-ns#"
   xmlns:svg="http://www.w3.org/2000/svg"
   xmlns="http://www.w3.org/2000/svg"
   xmlns:sodipodi="http://sodipodi.sourceforge.net/DTD/sodipodi-0.dtd"
   xmlns:inkscape="http://www.inkscape.org/namespaces/inkscape"
   version="1.1"
   id="svg2"
   width="48"
   height="48"
   viewBox="0 0 48.000002 48"
   sodipodi:docname="cube.svg"
   inkscape:version="0.92.1 r15371">
  <metadata
     id="metadata8">
    <rdf:RDF>
      <cc:Work
         rdf:about="">
        <dc:format>image/svg+xml</dc:format>
        <dc:type
           rdf:resource="http://purl.org/dc/dcmitype/StillImage" />
        <dc:title></dc:title>
      </cc:Work>
    </rdf:RDF>
  </metadata>
  <defs
     id="defs6" />
  <sodipodi:namedview
     pagecolor="#1a262f"
     bordercolor="#666666"
     borderopacity="1"
     objecttolerance="10"
     gridtolerance="10"
     guidetolerance="10"
     inkscape:pageopacity="0"
     inkscape:pageshadow="2"
     inkscape:window-width="1920"
     inkscape:window-height="1017"
     id="namedview4"
     showgrid="false"
     inkscape:zoom="0.43603586"
     inkscape:cx="729.96472"
     inkscape:cy="427.25155"
     inkscape:window-x="-8"
     inkscape:window-y="-8"
     inkscape:window-maximized="1"
     inkscape:current-layer="svg2" />
  <path
     style="fill:#ffffff;stroke-width:0.44994456"
     d="m 23.701662,4.0006326 c -0.07479,0.00315 -0.133711,0.019707 -0.181036,0.048333 -0.269157,0.1628754 -2.548567,1.480952 -5.064508,2.9290356 l -4.574145,2.6328775 -0.0097,5.5944263 -0.0097,5.595308 -4.7147484,2.702304 -4.714753,2.702304 -0.080851,5.998674 -0.080846,5.997797 5.0179346,2.900032 c 4.2508918,2.456265 5.1121808,2.850606 5.6304578,2.580153 0.336523,-0.175613 2.444513,-1.37949 4.683995,-2.675942 2.239487,-1.296452 4.222383,-2.357813 4.407171,-2.357813 0.184788,0 2.402299,1.204223 4.927419,2.675937 l 4.590843,2.675942 2.249723,-1.224168 c 1.237347,-0.673351 3.532352,-1.983743 5.099662,-2.912334 l 2.84994,-1.689051 V 32.230257 26.285189 L 39.004154,23.55125 34.279736,20.818188 v -5.436244 c 0,-4.805862 -0.06148,-5.4891706 -0.525517,-5.8879474 C 33.465508,9.2458792 31.154894,7.8527204 28.619402,6.3979911 25.50009,4.6082962 24.225181,3.977096 23.701648,4.0006326 Z m 9.228254,7.0541094 0.087,2.248845 c 0.04818,1.23643 0.04818,3.25723 0,4.490658 l -0.087,2.241813 -3.815737,-2.167113 c -2.098325,-1.192191 -3.815417,-2.234906 -3.816623,-2.317394 -0.0013,-0.08249 1.715333,-1.128353 3.814864,-2.323541 z m -17.923082,0.195096 c 0.248135,-0.151389 7.574358,4.00771 7.574358,4.299958 0,0.100252 -0.978922,0.745765 -2.175023,1.434198 -1.196106,0.688433 -2.867286,1.652889 -3.713802,2.144265 -0.846521,0.491389 -1.622968,0.810431 -1.725079,0.708311 -0.267073,-0.267069 -0.229525,-8.422588 0.03955,-8.586732 z m 8.113063,5.59794 c 0.329755,-0.0056 0.361184,0.687308 0.361184,4.220867 0,2.409862 -0.101238,4.380813 -0.224973,4.379931 -0.123734,-9e-4 -1.777861,-0.887165 -3.675129,-1.969389 -1.897263,-1.082189 -3.559381,-2.075797 -3.69359,-2.207536 -0.211735,-0.207857 5.636743,-3.83369 7.071689,-4.384328 0.06007,-0.02304 0.11371,-0.03874 0.160819,-0.03955 z m 10.56315,4.931815 3.822774,2.184692 c 2.102447,1.201546 3.994414,2.316337 4.204169,2.477332 0.277202,0.212761 -0.73295,0.936789 -3.697982,2.650452 -2.243599,1.296709 -4.237519,2.348229 -4.430901,2.337606 -0.193381,-0.01062 -2.127184,-1.056452 -4.297321,-2.324422 -2.170141,-1.267971 -3.886162,-2.400823 -3.813982,-2.517755 0.07218,-0.116927 1.949794,-1.247003 4.172529,-2.510727 z M 5.4006934,27.851208 c 0.1278202,4.5e-4 2.0542803,1.05417 4.2815058,2.34112 l 4.0495008,2.340238 0.0826,4.857115 c 0.04534,2.671834 -0.0225,4.854367 -0.150272,4.850088 -0.127825,-0.0045 -2.05428,-1.069955 -4.2815058,-2.369242 l -4.049501,-2.363086 -0.082605,-4.828994 c -0.045336,-2.655951 0.022497,-4.827964 0.1502725,-4.827239 z m 37.0053026,0.04833 c 0.15659,-0.05745 0.268698,1.984966 0.26364,4.799995 l -0.0088,4.899298 -3.944925,2.249722 c -2.169664,1.237348 -4.054905,2.294038 -4.190109,2.34903 -0.135208,0.05499 -0.244041,-2.104449 -0.24167,-4.799117 l 0.0045,-4.899298 3.922072,-2.249723 c 2.157448,-1.237347 4.045483,-2.294915 4.195382,-2.349907 z m -19.046189,0.02902 c 0.07574,0.07574 0.100275,2.100854 0.05449,4.500323 l -0.08349,4.362352 -3.599556,-2.089781 c -1.979756,-1.149379 -3.706558,-2.194348 -3.83683,-2.322663 -0.130273,-0.128315 1.465865,-1.213028 3.54595,-2.410542 2.080084,-1.197514 3.843705,-2.115419 3.919436,-2.039689 z m -8.413612,5.55664 c 0.187357,-0.187361 7.62166,4.011026 7.629728,4.308745 0.0054,0.197913 -6.315683,3.951081 -7.272935,4.318411 -0.480393,0.184347 -0.521126,-0.141233 -0.521126,-4.132106 0,-2.382358 0.07416,-4.404881 0.164333,-4.49505 z"
     id="path4279"
     inkscape:connector-curvature="0" />
</svg>
