<?xml version="1.0" encoding="UTF-8" standalone="no"?>
<!-- Created with Inkscape (http://www.inkscape.org/) -->

<svg
   xmlns:dc="http://purl.org/dc/elements/1.1/"
   xmlns:cc="http://creativecommons.org/ns#"
   xmlns:rdf="http://www.w3.org/1999/02/22-rdf-syntax-ns#"
   xmlns:svg="http://www.w3.org/2000/svg"
   xmlns="http://www.w3.org/2000/svg"
   xmlns:sodipodi="http://sodipodi.sourceforge.net/DTD/sodipodi-0.dtd"
   xmlns:inkscape="http://www.inkscape.org/namespaces/inkscape"
   version="1.1"
   id="svg2"
   width="48"
   height="48"
   viewBox="0 0 48.000002 48"
   sodipodi:docname="fish.svg"
   inkscape:version="0.92.1 r15371">
  <metadata
     id="metadata8">
    <rdf:RDF>
      <cc:Work
         rdf:about="">
        <dc:format>image/svg+xml</dc:format>
        <dc:type
           rdf:resource="http://purl.org/dc/dcmitype/StillImage" />
        <dc:title></dc:title>
      </cc:Work>
    </rdf:RDF>
  </metadata>
  <defs
     id="defs6" />
  <sodipodi:namedview
     pagecolor="#1a262f"
     bordercolor="#666666"
     borderopacity="1"
     objecttolerance="10"
     gridtolerance="10"
     guidetolerance="10"
     inkscape:pageopacity="0"
     inkscape:pageshadow="2"
     inkscape:window-width="1920"
     inkscape:window-height="1017"
     id="namedview4"
     showgrid="false"
     inkscape:zoom="1.2332957"
     inkscape:cx="88.663326"
     inkscape:cy="156.3294"
     inkscape:window-x="-8"
     inkscape:window-y="-8"
     inkscape:window-maximized="1"
     inkscape:current-layer="svg2" />
  <path
     style="fill:#ffffff;stroke-width:0.42540404"
     d="m 13.288464,7.1589285 -1.115026,0.807604 C 10.152173,9.4307307 8.1081832,9.6128079 4.6482742,8.6362121 4.0896251,8.4785276 4.0101681,8.5605838 4.0101681,9.2959202 c 0,0.9913188 0.6798255,1.6839028 2.1785324,2.2184138 1.3949765,0.49751 1.9757168,0.498765 3.6026448,0.0091 0.7337367,-0.220823 1.7663587,-0.731031 2.2948547,-1.134135 0.528492,-0.4031046 1.029521,-0.7328225 1.113359,-0.7328225 0.08384,0 0.735754,0.4109445 1.448203,0.9131215 1.096181,0.772657 1.601527,0.929916 3.289403,1.025292 1.838252,0.10387 2.159257,0.03173 4.091192,-0.923097 l 2.096276,-1.036089 1.074311,0.675495 c 1.663134,1.046264 3.080806,1.40354 5.06746,1.277041 1.487008,-0.09469 2.050239,-0.283812 3.148156,-1.057694 1.052522,-0.741888 1.430919,-0.8753458 1.777227,-0.6289645 2.126782,1.5130855 3.042192,1.8798305 4.693568,1.8794225 2.384267,-4.26e-4 3.653298,-0.755722 3.777124,-2.2474991 0.08481,-1.0216929 0.0509,-1.0756639 -0.56665,-0.885704 -3.089234,0.9502506 -5.298982,0.7397351 -7.276737,-0.6929406 l -1.09924,-0.7959736 -1.91847,0.9646378 c -1.60921,0.8099097 -2.222204,0.9654672 -3.810357,0.9654672 -1.635695,0 -2.102636,-0.126311 -3.439791,-0.9305714 L 24.004158,7.227895 22.61661,8.0836888 c -1.131158,0.6981264 -1.759672,0.8748988 -3.403233,0.9546663 -1.839558,0.089275 -2.187083,0.011528 -3.970713,-0.8906898 z"
     id="path3871"
     inkscape:connector-curvature="0" />
  <path
     style="fill:#ffffff;stroke-width:0.42540404"
     d="m 34.550359,13.311556 -1.666721,0.888197 c -2.841873,1.514702 -5.363026,1.450776 -7.791045,-0.196916 -0.840164,-0.570152 -1.158864,-0.654811 -1.503038,-0.400475 -0.240208,0.177508 -1.121633,0.65425 -1.959185,1.060183 -1.988475,0.963745 -4.053663,0.827492 -6.532279,-0.432048 l -1.716569,-0.872411 -1.451526,0.902321 c -1.788739,1.111942 -4.3104022,1.384741 -6.3577953,0.687129 -1.1360883,-0.387105 -1.3267586,-0.391363 -1.4648193,-0.03156 -0.8530542,2.223022 3.5655666,3.844879 6.5671746,2.410344 0.623928,-0.298187 1.437547,-0.786444 1.807968,-1.085112 0.67213,-0.541935 0.676439,-0.541195 2.059717,0.389678 2.652794,1.785204 5.550093,1.611193 8.760664,-0.52511 0.692592,-0.460848 0.760614,-0.447742 1.981622,0.360598 2.621863,1.735742 5.753373,1.798562 8.181549,0.164512 1.377203,-0.926785 1.38971,-0.929261 2.058888,-0.398816 2.246954,1.781112 5.030654,2.185339 7.087299,1.029444 0.974797,-0.547869 1.101729,-0.742232 1.101729,-1.684166 v -1.065174 l -1.291999,0.440357 c -2.051767,0.699105 -4.559932,0.41773 -6.38272,-0.715376 z"
     id="path3853"
     inkscape:connector-curvature="0" />
  <path
     style="fill:#ffffff;stroke-width:0.42540404"
     d="m 4.2446678,22.904719 0.8948417,1.772238 c 0.9988189,1.978652 1.9924564,5.521264 1.9849438,7.074835 -0.011146,2.302342 -0.9763023,5.401857 -2.768453,8.887788 -0.1667371,0.324324 0.5558032,0.255604 2.0539061,-0.195256 2.5310733,-0.761746 5.2815316,-3.057115 6.8372046,-5.705562 0.28363,-0.482872 0.378393,-0.457952 1.418293,0.374717 1.953855,1.564509 5.71877,3.671748 8.277099,4.632918 2.263588,0.850438 2.764356,0.933443 5.741291,0.945529 3.726557,0.0151 5.177908,-0.393478 8.5812,-2.415334 2.221843,-1.319973 6.731691,-5.607442 6.73501,-6.402662 0.0013,-0.288369 -1.185227,-1.672387 -2.652127,-3.092488 -4.167866,-4.034906 -8.074815,-5.839411 -12.62503,-5.832689 -3.958058,0.0058 -8.386603,1.690819 -13.067881,4.97108 L 13.47477,29.446965 12.691261,28.208142 C 11.080137,25.661499 7.8622698,23.389688 5.3987422,23.05926 Z m 28.9690162,4.902114 c 1.012342,0 2.176235,0.775992 2.562396,1.708265 0.312178,0.753672 0.29797,1.029703 -0.09971,1.863636 -0.777154,1.629706 -2.450974,1.976559 -3.851069,0.798462 -1.189463,-1.000869 -1.206879,-2.378315 -0.04404,-3.541157 0.455943,-0.455948 1.100707,-0.829206 1.432416,-0.829206 z"
     id="path3823"
     inkscape:connector-curvature="0" />
</svg>
