<?xml version="1.0" encoding="UTF-8" standalone="no"?>
<!-- Created with Inkscape (http://www.inkscape.org/) -->

<svg
   xmlns:dc="http://purl.org/dc/elements/1.1/"
   xmlns:cc="http://creativecommons.org/ns#"
   xmlns:rdf="http://www.w3.org/1999/02/22-rdf-syntax-ns#"
   xmlns:svg="http://www.w3.org/2000/svg"
   xmlns="http://www.w3.org/2000/svg"
   xmlns:sodipodi="http://sodipodi.sourceforge.net/DTD/sodipodi-0.dtd"
   xmlns:inkscape="http://www.inkscape.org/namespaces/inkscape"
   version="1.1"
   id="svg2"
   width="48"
   height="48"
   viewBox="0 0 48.000002 48"
   sodipodi:docname="tree.svg"
   inkscape:version="0.92.1 r15371">
  <metadata
     id="metadata8">
    <rdf:RDF>
      <cc:Work
         rdf:about="">
        <dc:format>image/svg+xml</dc:format>
        <dc:type
           rdf:resource="http://purl.org/dc/dcmitype/StillImage" />
        <dc:title></dc:title>
      </cc:Work>
    </rdf:RDF>
  </metadata>
  <defs
     id="defs6" />
  <sodipodi:namedview
     pagecolor="#1a262f"
     bordercolor="#666666"
     borderopacity="1"
     objecttolerance="10"
     gridtolerance="10"
     guidetolerance="10"
     inkscape:pageopacity="0"
     inkscape:pageshadow="2"
     inkscape:window-width="1920"
     inkscape:window-height="1017"
     id="namedview4"
     showgrid="false"
     inkscape:zoom="0.30832392"
     inkscape:cx="964.00139"
     inkscape:cy="738.01568"
     inkscape:window-x="-8"
     inkscape:window-y="-8"
     inkscape:window-maximized="1"
     inkscape:current-layer="svg2" />
  <path
     style="fill:#ffffff;stroke-width:0.46832842"
     d="m 35.489599,4.5001365 c -0.315368,-0.011755 -0.670754,0.049961 -1.126002,0.1719655 -0.890882,0.2387491 -0.916491,0.7399963 -0.03751,0.7399963 0.808124,0 2.641522,1.0898096 2.880407,1.7123258 0.139019,0.3622801 0.361236,0.3847177 1.13423,0.1152509 0.528902,-0.1843762 1.273381,-0.2610088 1.653785,-0.1701343 0.380405,0.090874 1.022909,0.2675607 1.428767,0.3924077 0.665139,0.2046126 0.705078,0.1647813 0.402472,-0.4006409 C 41.387315,6.242098 39.82144,5.6071384 38.745933,5.8127392 38.137106,5.9291188 37.639924,5.761846 37.002511,5.2254975 36.42864,4.7426135 36.015199,4.5197688 35.48959,4.5001365 Z"
     id="path3873"
     inkscape:connector-curvature="0" />
  <path
     style="fill:#ffffff;stroke-width:0.46832842"
     d="M 15.621314,4.5376964 C 15.116128,4.5487021 14.594396,4.6254424 14.06083,4.7691162 12.448661,5.2032285 10.68273,6.9464171 10.1898,8.5916642 9.9186618,9.496648 9.6277408,9.8399093 9.0217239,9.9701233 6.7104857,10.466739 5.5641723,11.875372 5.562313,14.220752 c -9.366e-4,1.197637 0.1765458,1.675782 0.9531233,2.560257 0.9354719,1.065443 0.9437098,1.102975 0.4161894,1.908073 -1.1716031,1.788092 -0.3819031,4.925223 1.5330449,6.092841 0.8962589,0.546478 1.5973094,0.609979 6.7871044,0.611023 5.383922,9.37e-4 5.884809,-0.04812 7.176768,-0.701579 1.983024,-1.002987 3.195521,-2.870357 3.362452,-5.178139 0.09524,-1.316588 -0.01766,-2.12135 -0.405216,-2.889549 C 24.603483,15.073072 23.089462,13.592166 21.87606,13.191708 21.075921,12.927636 20.86796,12.716649 21.025384,12.327314 21.63245,10.825909 21.548483,9.4533744 20.751889,7.8388637 19.67834,5.6630193 17.810459,4.4899363 15.621314,4.5376964 Z"
     id="path3869"
     inkscape:connector-curvature="0" />
  <path
     style="fill:#ffffff;stroke-width:0.46832842"
     d="m 34.008693,9.1798191 c -0.687848,0.00468 -1.432223,0.1681112 -2.111135,0.490279 -0.858835,0.4075439 -1.236392,0.4386179 -1.857766,0.1554991 -1.118677,-0.5097006 -2.543084,-0.4374375 -3.59021,0.1811118 -1.341812,0.792627 -1.189769,1.326437 0.267093,0.937575 0.970549,-0.259051 1.416796,-0.202004 2.575806,0.329291 1.793093,0.821958 1.752513,0.822005 2.915161,-0.0073 0.720772,-0.514126 1.424421,-0.702493 2.62337,-0.702493 1.799594,0 1.99137,-0.186933 0.945803,-0.9192768 -0.449454,-0.314815 -1.080274,-0.4691573 -1.768122,-0.4646707 z"
     id="path3859"
     inkscape:connector-curvature="0" />
  <path
     style="fill:#ffffff;stroke-width:0.46832842"
     d="m 39.667051,19.484875 c -0.790211,0.0066 -1.609439,0.190423 -2.314198,0.549738 -1.082176,0.551724 -1.161698,0.551949 -2.173339,0.01283 -1.400204,-0.746187 -3.305068,-0.731032 -4.562544,0.03569 -0.558093,0.340273 -1.015322,0.732264 -1.015322,0.871714 0,0.139459 0.878724,0.204655 1.951979,0.144521 1.660191,-0.09302 2.137113,0.008 3.199633,0.677798 0.686884,0.433007 1.337158,0.791348 1.44432,0.796706 0.107163,0.0054 0.852817,-0.357967 1.657443,-0.807684 1.21778,-0.680631 1.747319,-0.794135 3.161217,-0.676879 1.933606,0.160346 2.227332,-0.24437 0.792135,-1.092161 -0.590019,-0.348535 -1.351114,-0.51881 -2.141324,-0.512234 z"
     id="path3827"
     inkscape:connector-curvature="0" />
  <path
     style="fill:#ffffff;stroke-width:0.46832842"
     d="m 14.927968,27.267159 v 3.121886 3.1228 h 1.248573 1.248568 v -3.1228 -3.121886 h -1.248568 z"
     id="path3805"
     inkscape:connector-curvature="0" />
  <path
     style="fill:#ffffff;stroke-width:0.46832842"
     d="m 4.0000022,36.003441 v 1.40773 1.406816 H 24.000004 44.000002 l -0.09604,-1.32632 -0.09604,-1.327238 -19.903957,-0.08049 z"
     id="path3793"
     inkscape:connector-curvature="0" />
  <path
     style="fill:#ffffff;stroke-width:0.46832842"
     d="m 4.0000022,41.00413 v 1.248568 1.248573 H 23.981707 43.964329 V 42.252698 41.00413 H 23.981707 Z"
     id="path3789"
     inkscape:connector-curvature="0" />
</svg>
