<?xml version="1.0" encoding="UTF-8" standalone="no"?>
<!-- Created with Inkscape (http://www.inkscape.org/) -->

<svg
   xmlns:dc="http://purl.org/dc/elements/1.1/"
   xmlns:cc="http://creativecommons.org/ns#"
   xmlns:rdf="http://www.w3.org/1999/02/22-rdf-syntax-ns#"
   xmlns:svg="http://www.w3.org/2000/svg"
   xmlns="http://www.w3.org/2000/svg"
   xmlns:sodipodi="http://sodipodi.sourceforge.net/DTD/sodipodi-0.dtd"
   xmlns:inkscape="http://www.inkscape.org/namespaces/inkscape"
   version="1.1"
   id="svg2"
   width="48"
   height="48"
   viewBox="0 0 48.000002 48"
   sodipodi:docname="family.svg"
   inkscape:version="0.92.1 r15371">
  <metadata
     id="metadata8">
    <rdf:RDF>
      <cc:Work
         rdf:about="">
        <dc:format>image/svg+xml</dc:format>
        <dc:type
           rdf:resource="http://purl.org/dc/dcmitype/StillImage" />
        <dc:title></dc:title>
      </cc:Work>
    </rdf:RDF>
  </metadata>
  <defs
     id="defs6" />
  <sodipodi:namedview
     pagecolor="#1a262f"
     bordercolor="#666666"
     borderopacity="1"
     objecttolerance="10"
     gridtolerance="10"
     guidetolerance="10"
     inkscape:pageopacity="0"
     inkscape:pageshadow="2"
     inkscape:window-width="1920"
     inkscape:window-height="1017"
     id="namedview4"
     showgrid="false"
     inkscape:zoom="2.4665913"
     inkscape:cx="59.035586"
     inkscape:cy="59.335721"
     inkscape:window-x="-8"
     inkscape:window-y="-8"
     inkscape:window-maximized="1"
     inkscape:current-layer="svg2" />
  <path
     style="fill:#ffffff;stroke-width:0.30175492"
     d="m 8.3758283,15.487603 c -0.6459305,0.04321 -1.1899282,0.625882 -1.1899282,1.439818 0,0.73987 0.5662521,1.304266 1.3078028,1.304266 0.2273723,0 0.6145661,-0.140714 0.8604722,-0.312953 0.3049204,-0.213576 0.4458912,-0.51725 0.443791,-0.955362 C 9.7943148,16.202735 9.656437,15.960532 9.0394538,15.635532 8.8177424,15.518744 8.5911395,15.473197 8.3758283,15.487603 Z"
     id="path4789"
     inkscape:connector-curvature="0" />
  <path
     style="fill:#ffffff;stroke-width:0.30175492"
     d="m 40.536303,15.491134 c -0.07503,0.0045 -0.151607,0.01647 -0.229264,0.03595 -0.715129,0.179487 -1.202134,1.093707 -0.944161,1.772218 0.364242,0.958042 1.525848,1.227666 2.234869,0.518642 0.850373,-0.85037 0.06399,-2.394166 -1.061444,-2.32681 z"
     id="path4787"
     inkscape:connector-curvature="0" />
  <path
     style="fill:#ffffff;stroke-width:0.30175492"
     d="m 20.724795,16.456511 c -0.681872,0.0433 -1.06616,0.458402 -1.06616,1.17166 0,0.815152 0.502419,1.24123 1.376757,1.167532 0.545561,-0.04598 0.798347,-0.196699 1.030798,-0.614119 0.276654,-0.496792 0.276654,-0.609446 0,-1.106237 -0.232451,-0.417421 -0.485237,-0.568135 -1.030798,-0.61412 -0.109293,-0.0092 -0.213187,-0.01089 -0.310597,-0.0047 z"
     id="path4783"
     inkscape:connector-curvature="0" />
  <path
     style="fill:#ffffff;stroke-width:0.30175492"
     d="m 28.972958,16.456511 c -0.681875,0.0433 -1.06616,0.458402 -1.06616,1.17166 0,0.815152 0.501827,1.24123 1.376168,1.167532 0.545561,-0.04598 0.798936,-0.196699 1.03139,-0.614119 0.276654,-0.496792 0.276654,-0.609446 0,-1.106237 -0.232454,-0.417421 -0.485829,-0.568135 -1.03139,-0.61412 -0.109292,-0.0092 -0.212595,-0.01089 -0.310008,-0.0047 z"
     id="path4781"
     inkscape:connector-curvature="0" />
  <path
     style="fill:#ffffff;stroke-width:0.30175492"
     d="m 8.4937029,18.845209 c -0.7375102,0 -1.4750565,0.06695 -1.9555137,0.200383 -1.2439062,0.345468 -1.363543,0.697428 -1.3643819,4.008863 -6.035e-4,2.414778 -0.1054754,3.463968 -0.6029184,6.0404 -0.6926181,3.587253 -0.6809824,3.479304 -0.3565657,3.371167 0.1417343,-0.04725 0.5771184,-1.659136 1.0237247,-3.78844 0.4568147,-2.178052 0.8170588,-4.520518 0.8734417,-5.680295 0.067819,-1.395067 0.1654583,-1.950203 0.333578,-1.894221 0.1735966,0.0578 0.2527227,1.579271 0.2917366,5.632563 0.051808,5.38224 0.065819,5.556893 0.4620623,5.682655 0.858191,0.272379 0.979762,-0.1427 1.0384624,-3.54562 0.033836,-1.961483 0.1330105,-3.198485 0.256374,-3.198485 0.1233664,0 0.2225382,1.237002 0.256374,3.198485 0.058703,3.40292 0.1802683,3.817999 1.0384593,3.54562 0.3962468,-0.125762 0.4102568,-0.300415 0.4620618,-5.682655 0.04067,-4.225118 0.113967,-5.573567 0.305292,-5.637276 0.189049,-0.06295 0.252288,0.382456 0.254606,1.794026 0.0034,2.056563 0.146532,2.493259 0.764997,2.331525 0.333255,-0.08715 0.524809,0.113855 1.054374,1.107419 0.603027,1.131397 0.632149,1.277102 0.432004,2.139983 -0.118101,0.509175 -0.276338,1.084118 -0.351261,1.277745 -0.09398,0.242876 -0.0387,0.351849 0.177399,0.351849 0.240227,0 0.327386,0.26982 0.373657,1.156925 0.05228,1.002502 0.113952,1.156334 0.462651,1.156334 0.348696,0 0.410365,-0.153832 0.46265,-1.156334 0.07252,-1.39036 0.441193,-1.557218 0.445563,-0.201563 0.0036,1.110473 0.226913,1.567988 0.680716,1.393848 0.241585,-0.09271 0.321792,-0.401777 0.321792,-1.236489 0,-0.854995 0.0699,-1.112721 0.301755,-1.112721 0.367655,0 0.368765,0.0912 -0.01002,-1.387364 L 15.61441,27.49473 16.27509,26.301857 c 0.546922,-0.987291 0.746575,-1.187095 1.159279,-1.161054 0.459407,0.029 0.541997,-0.111139 1.047304,-1.779288 0.30164,-0.995792 0.554161,-1.850914 0.561074,-1.900703 0.0069,-0.04979 0.102398,-9.06e-4 0.212173,0.109033 0.132006,0.132008 -0.07235,1.18354 -0.60351,3.10536 -0.441712,1.598145 -0.803305,2.929433 -0.803305,2.958616 0,0.02918 0.317036,0.05304 0.70429,0.05304 h 0.703702 v 2.188311 c 0,1.75115 0.06387,2.240733 0.318846,2.452347 0.230903,0.19163 0.410701,0.206512 0.653607,0.05363 0.273964,-0.172426 0.346026,-0.620103 0.392517,-2.452347 0.07245,-2.855317 0.445559,-2.996019 0.445559,-0.167969 0,2.311914 0.264371,3.048063 0.944164,2.632103 0.309782,-0.189554 0.372375,-0.555435 0.420807,-2.464134 l 0.05658,-2.241942 h 0.713719 c 0.835065,0 0.849392,0.257092 -0.20156,-3.520279 -0.620501,-2.230241 -0.717461,-3.005422 -0.322974,-2.582597 0.08642,0.09262 0.395884,0.960275 0.68779,1.928404 0.433196,1.436734 0.603956,1.760429 0.927073,1.760429 0.553219,0 0.5125,-0.713717 -0.161488,-2.833663 -0.863628,-2.716434 -0.842895,-2.698703 -3.132475,-2.698703 -2.429526,0 -2.556184,0.109417 -3.418316,2.943288 -0.467817,1.53774 -0.717184,2.078536 -0.938859,2.038022 -0.165966,-0.03034 -0.506194,0.262105 -0.756156,0.650071 -0.420417,0.652524 -0.530147,0.705473 -1.465162,0.705473 -0.941943,0 -1.039132,-0.04756 -1.426263,-0.703705 -0.243157,-0.412118 -0.57414,-0.704293 -0.798003,-0.704293 -0.353237,0 -0.382495,-0.173177 -0.382495,-2.268463 0,-2.598134 -0.173274,-3.024617 -1.36379,-3.355256 C 9.9687563,18.912156 9.23121,18.845209 8.4937029,18.845209 Z"
     id="path4777"
     inkscape:connector-curvature="0" />
  <path
     style="fill:#ffffff;stroke-width:0.30175492"
     d="m 40.443182,18.846416 c -0.807445,0.01629 -1.581247,0.113068 -1.989105,0.283484 -0.991676,0.414345 -1.293657,1.256257 -1.293657,3.605147 0,2.161341 0.09186,2.537801 0.618245,2.537801 0.335989,0 0.379288,-0.20682 0.430824,-2.045684 0.03966,-1.415155 0.13487,-2.071095 0.308828,-2.128784 0.197022,-0.06534 0.251658,1.092706 0.251658,5.350256 0,4.671755 0.04412,5.478654 0.315901,5.750432 0.378003,0.378003 0.724155,0.402119 1.052014,0.07426 0.168111,-0.168111 0.241051,-1.241577 0.241051,-3.536779 0,-2.547143 0.05732,-3.277248 0.251661,-3.212631 0.184116,0.06122 0.266069,0.949427 0.306468,3.315768 0.0587,3.438316 0.178681,3.851509 1.038463,3.578626 0.396246,-0.125762 0.410842,-0.300415 0.46265,-5.682654 0.03982,-4.136744 0.115672,-5.574331 0.29763,-5.634921 0.178693,-0.0595 0.259699,0.47604 0.301755,1.995002 0.05482,1.979962 0.07818,2.079272 0.5098,2.140571 C 43.996612,25.300112 44,25.281276 44,22.716187 44,19.774026 43.855067,19.384128 42.63621,19.04562 42.091808,18.894425 41.25063,18.830118 40.443182,18.846416 Z"
     id="path4775"
     inkscape:connector-curvature="0" />
  <path
     style="fill:#ffffff;stroke-width:0.30175492"
     d="m 29.190436,19.740483 c -1.806751,0 -1.947393,0.03069 -2.360408,0.510388 -0.590091,0.685361 -1.693374,4.545642 -1.386775,4.85224 0.44373,0.443731 0.778222,-0.01877 1.317229,-1.819368 0.301818,-1.008266 0.637838,-1.832923 0.746726,-1.832923 0.108891,0 0.198027,0.09097 0.198027,0.202152 0,0.160259 -1.018022,3.935714 -1.532348,5.682069 -0.08507,0.28887 0.02465,0.35185 0.613528,0.35185 h 0.717848 v 2.172397 c 0,2.119665 0.142259,2.655678 0.70429,2.655678 0.12171,0 0.329878,-0.108867 0.46265,-0.241639 0.157957,-0.157957 0.241051,-0.992436 0.241051,-2.414039 0,-1.776244 0.05438,-2.172397 0.295862,-2.172397 0.239738,0 0.305853,0.44539 0.351852,2.363942 l 0.05658,2.363353 h 0.502727 0.503318 l 0.05658,-2.363353 0.05658,-2.363942 h 0.697808 c 0.383739,0 0.697809,-0.09748 0.697809,-0.216298 0,-0.11881 -0.317039,-1.340278 -0.70429,-2.714618 -0.701689,-2.490256 -0.876797,-3.566085 -0.52041,-3.194945 0.100931,0.105114 0.423064,0.98326 0.716077,1.951389 0.417269,1.37867 0.612405,1.760429 0.901139,1.760429 0.202753,0 0.413118,-0.114181 0.466779,-0.254017 0.143832,-0.374822 -1.172116,-4.570184 -1.552979,-4.951252 -0.25564,-0.25578 -0.742775,-0.327096 -2.247247,-0.327096 z"
     id="path4773"
     inkscape:connector-curvature="0" />
  <path
     style="fill:#ffffff;stroke-width:0.30175492"
     d="m 35.19194,23.18092 c -0.519709,0.02975 -1.049069,0.413567 -1.049069,0.975396 0,0.902748 0.797897,1.349538 1.622521,0.908213 0.39313,-0.210396 0.529088,-1.087175 0.235158,-1.516433 -0.188543,-0.275349 -0.496782,-0.385031 -0.80861,-0.367176 z"
     id="path4765"
     inkscape:connector-curvature="0" />
  <path
     style="fill:#ffffff;stroke-width:0.30175492"
     d="m 14.610133,23.186804 c -0.553817,-0.03829 -1.187571,0.336364 -1.187571,0.969503 0,0.920214 0.945238,1.413356 1.657295,0.8646 0.393205,-0.303028 0.48336,-0.706906 0.286432,-1.285403 -0.120437,-0.353793 -0.423866,-0.525724 -0.756156,-0.5487 z"
     id="path4763"
     inkscape:connector-curvature="0" />
  <path
     style="fill:#ffffff;stroke-width:0.30175492"
     d="m 35.220818,25.864879 c -0.666746,0.02215 -1.340103,0.148265 -1.533527,0.363051 -0.387731,0.430553 -1.153978,2.334424 -1.153978,2.867845 0,0.740857 0.529113,0.194442 0.787394,-0.81332 0.140702,-0.548991 0.338068,-0.998383 0.438486,-0.998383 0.100421,0 0.182703,1.11662 0.182703,2.481222 0,1.364605 0.06327,2.5445 0.140859,2.622087 0.07759,0.07759 0.281272,0.114516 0.452633,0.08192 0.23364,-0.04445 0.326387,-0.372957 0.3713,-1.314285 0.07063,-1.480461 0.443203,-1.704456 0.443203,-0.266392 0,1.234854 0.145129,1.626058 0.60351,1.626058 0.524097,0 0.602541,-0.38003 0.614708,-2.983955 l 0.01062,-2.346848 0.407843,1.004865 c 0.483789,1.193363 0.427729,1.122462 0.734348,0.932963 0.186243,-0.115107 0.11789,-0.470433 -0.27759,-1.447476 -0.2883,-0.712241 -0.616465,-1.408191 -0.729635,-1.546494 -0.165977,-0.20284 -0.826114,-0.285016 -1.492863,-0.262859 z"
     id="path4757"
     inkscape:connector-curvature="0" />
</svg>
