<?xml version="1.0" encoding="UTF-8" standalone="no"?>
<!-- Created with Inkscape (http://www.inkscape.org/) -->

<svg
   xmlns:dc="http://purl.org/dc/elements/1.1/"
   xmlns:cc="http://creativecommons.org/ns#"
   xmlns:rdf="http://www.w3.org/1999/02/22-rdf-syntax-ns#"
   xmlns:svg="http://www.w3.org/2000/svg"
   xmlns="http://www.w3.org/2000/svg"
   xmlns:sodipodi="http://sodipodi.sourceforge.net/DTD/sodipodi-0.dtd"
   xmlns:inkscape="http://www.inkscape.org/namespaces/inkscape"
   version="1.1"
   id="svg2"
   width="48"
   height="48"
   viewBox="0 0 48.000002 48"
   sodipodi:docname="circles.svg"
   inkscape:version="0.92.1 r15371">
  <metadata
     id="metadata8">
    <rdf:RDF>
      <cc:Work
         rdf:about="">
        <dc:format>image/svg+xml</dc:format>
        <dc:type
           rdf:resource="http://purl.org/dc/dcmitype/StillImage" />
        <dc:title></dc:title>
      </cc:Work>
    </rdf:RDF>
  </metadata>
  <defs
     id="defs6" />
  <sodipodi:namedview
     pagecolor="#1a262f"
     bordercolor="#666666"
     borderopacity="1"
     objecttolerance="10"
     gridtolerance="10"
     guidetolerance="10"
     inkscape:pageopacity="0"
     inkscape:pageshadow="2"
     inkscape:window-width="1920"
     inkscape:window-height="1017"
     id="namedview4"
     showgrid="false"
     inkscape:zoom="1.2332957"
     inkscape:cx="166.76855"
     inkscape:cy="186.09233"
     inkscape:window-x="-8"
     inkscape:window-y="-8"
     inkscape:window-maximized="1"
     inkscape:current-layer="svg2" />
  <path
     style="fill:#ffffff;stroke-width:0.46667936"
     d="m 23.989659,4.5120432 c -1.542142,0.00187 -3.080658,0.2455993 -4.13722,0.7301012 -1.866437,0.8558666 -4.558911,3.4217351 -5.288424,5.0395916 -0.469013,1.040055 -0.68257,1.190956 -1.928698,1.361751 -1.861943,0.255209 -4.8958441,1.904873 -6.0394886,3.284074 -0.5066598,0.611005 -1.3020168,1.880816 -1.7664561,2.821955 -0.711966,1.442687 -0.8413856,2.101657 -0.8285379,4.200114 0.017734,2.869793 0.6782718,4.674979 2.5485081,6.957349 1.1388843,1.389846 1.153048,1.439533 1.1612289,4.224727 0.00966,3.250403 0.5702589,4.734206 2.7052846,7.159697 2.155046,2.448289 4.263629,3.285054 8.036545,3.189282 2.018248,-0.05123 2.982837,-0.233134 4.07342,-0.769293 l 1.429206,-0.702753 1.526732,0.704578 c 1.247107,0.575014 2.067306,0.702871 4.481765,0.701839 2.616298,-0.0014 3.141573,-0.09848 4.570172,-0.850411 3.955015,-2.081689 6.401385,-6.615241 5.752374,-10.658887 -0.2451,-1.527045 -0.225789,-1.581642 1.046379,-2.971431 2.767222,-3.023061 3.475768,-7.841492 1.680779,-11.433645 -0.564962,-1.13054 -1.581782,-2.470526 -2.503847,-3.299572 -1.540555,-1.385081 -4.290515,-2.673378 -5.704973,-2.673378 -0.564402,0 -0.953123,-0.383858 -1.663456,-1.6424919 -1.12465,-1.9927629 -3.0379,-3.7765748 -4.99128,-4.6540347 C 27.077429,4.7495597 25.531848,4.5099711 23.989659,4.5120432 Z m -0.216021,1.9141181 c 1.279215,-0.031408 2.574871,0.133783 3.433561,0.5058711 2.201606,0.9539813 5.312281,4.4137696 4.245685,4.7223936 -2.355564,0.681599 -3.655546,1.399702 -5.061464,2.797342 -0.877871,0.8727 -1.825589,1.936598 -2.106437,2.364389 -0.280847,0.427791 -0.517879,0.614827 -0.526839,0.414724 -0.0089,-0.200108 -0.738898,-1.154346 -1.621529,-2.120111 -1.5035,-1.645086 -4.01691,-3.272225 -5.055085,-3.272225 -1.957206,0 0.258056,-3.1284315 3.356993,-4.7406221 0.793215,-0.4126566 2.0559,-0.6403494 3.335115,-0.6717616 z m 10.545862,6.9181577 1.010837,0.218756 c 6.072805,1.310776 8.77352,8.518742 5.030472,13.426146 -0.431212,0.565335 -0.882062,1.019377 -1.001718,1.009922 -0.11961,-0.0095 -0.901583,-0.786005 -1.738199,-1.726349 -1.60421,-1.803138 -2.910287,-2.626015 -5.10704,-3.217535 l -1.335324,-0.359124 1.105629,-1.506684 C 33.72629,19.224843 34.3195,17.479458 34.3195,15.197363 Z m -2.174801,0.137633 c 0.290695,0.01783 0.306651,0.381142 0.301704,1.679864 -0.01447,3.751117 -2.846469,7.27541 -6.449654,8.026521 l -1.010837,0.211462 v -1.369961 c 0,-3.83791 2.763816,-7.298105 6.766851,-8.472233 0.167445,-0.04911 0.295054,-0.08159 0.391936,-0.07565 z m -19.103772,0.03827 c 0.349356,0.02805 0.390695,0.42976 0.521365,1.978828 0.205759,2.439678 1.016129,4.514978 2.363479,6.049513 1.004154,1.14371 0.982794,1.48797 -0.09206,1.49301 -1.756534,0.0083 -5.409201,2.522547 -6.7559117,4.65039 L 8.5937995,28.456694 7.6039305,27.090378 C 6.2801198,25.262913 5.5729139,22.771312 5.8511481,20.915991 6.3883894,17.333452 9.104132,14.373683 12.574248,13.588579 c 0.199879,-0.04522 0.350196,-0.0777 0.466679,-0.06836 z m 2.916746,0.0638 c 0.212307,0.01419 0.496874,0.08219 0.875934,0.186854 1.767968,0.488165 3.613274,1.92767 4.759766,3.714292 0.866157,1.349842 1.065704,1.992184 1.164873,3.747108 0.0658,1.164748 2.52e-4,2.105648 -0.148572,2.090943 -0.14761,-0.0147 -0.619279,-0.133867 -1.048204,-0.264332 -3.452447,-1.050187 -6.219963,-4.729291 -6.219963,-8.268975 0,-0.80756 0.05592,-1.149613 0.427488,-1.201335 0.05573,-0.0077 0.117906,-0.0093 0.188678,-0.0047 z m 13.917434,11.08728 c 0.250327,-0.0028 0.496999,0.0042 0.733746,0.02371 0.953519,0.07761 2.324222,0.442926 3.046175,0.81122 1.612797,0.822811 3.835385,3.057954 3.707002,3.727965 -0.224986,1.174212 -4.262621,1.615476 -6.748622,0.737391 -1.535189,-0.542244 -4.843764,-3.528806 -4.627598,-4.177326 0.191432,-0.574431 2.137102,-1.103035 3.889297,-1.122948 z m -12.041602,0.03463 c 1.797976,-0.02254 3.85626,0.551745 3.978624,1.191306 0.131463,0.686779 -2.035553,2.840887 -3.726146,3.703357 -1.322522,0.674716 -4.427592,1.053235 -5.700414,0.69455 -1.99581,-0.562405 -2.077768,-0.646519 -1.576867,-1.615149 0.965013,-1.866116 3.771898,-3.62154 6.276473,-3.925758 0.23978,-0.02912 0.49147,-0.04508 0.74833,-0.04831 z m 6.03493,2.541213 c 0.142663,-0.0053 0.285663,0.113081 0.503136,0.309903 0.330129,0.298769 0.953869,1.252195 1.385454,2.118291 0.881371,1.768682 1.075295,4.800749 0.40561,6.338453 -0.572056,1.313502 -1.845624,3.202951 -2.158392,3.202951 -0.152138,0 -0.695086,-0.659688 -1.2068,-1.466577 -2.052363,-3.236221 -2.046123,-5.973683 0.02189,-9.234236 0.575089,-0.906828 0.811252,-1.259918 1.049119,-1.268785 z m -4.326814,3.882007 c 0,5.069011 0.199613,5.868185 2.122846,8.469503 0.720319,0.974226 0.576993,1.22557 -1.002633,1.753692 -1.987587,0.66451 -4.41804,0.444162 -6.483376,-0.587904 -2.883985,-1.441166 -4.7488265,-4.453997 -4.7488265,-7.671956 0,-0.718271 0.1146725,-1.376616 0.254303,-1.462928 0.1396631,-0.0863 0.8043875,0.04004 1.4775115,0.279825 1.808289,0.6442 4.816887,0.573521 6.743153,-0.158601 0.900178,-0.342141 1.637022,-0.622326 1.637022,-0.621631 z m 8.866908,0.0948 1.633378,0.564206 c 2.000561,0.691138 4.99431,0.742977 6.766851,0.11758 0.72746,-0.256674 1.390261,-0.46668 1.472957,-0.46668 0.08279,0 0.09808,1.040271 0.03374,2.311524 -0.105703,2.094074 -0.23327,2.480933 -1.356287,4.113522 -2.280335,3.315066 -6.30124,4.643082 -10.045456,3.318711 -1.296061,-0.458424 -1.323246,-0.495212 -0.846766,-1.14209 0.270861,-0.367636 0.908041,-1.50814 1.416442,-2.534835 0.762741,-1.540317 0.924058,-2.252563 0.924244,-4.07433 z"
     id="path3875"
     inkscape:connector-curvature="0" />
</svg>
