<?xml version="1.0" encoding="UTF-8" standalone="no"?>
<!-- Created with Inkscape (http://www.inkscape.org/) -->

<svg
   xmlns:dc="http://purl.org/dc/elements/1.1/"
   xmlns:cc="http://creativecommons.org/ns#"
   xmlns:rdf="http://www.w3.org/1999/02/22-rdf-syntax-ns#"
   xmlns:svg="http://www.w3.org/2000/svg"
   xmlns="http://www.w3.org/2000/svg"
   xmlns:sodipodi="http://sodipodi.sourceforge.net/DTD/sodipodi-0.dtd"
   xmlns:inkscape="http://www.inkscape.org/namespaces/inkscape"
   version="1.1"
   id="svg2"
   width="48"
   height="48"
   viewBox="0 0 48.000002 48"
   sodipodi:docname="peace.svg"
   inkscape:version="0.92.1 r15371">
  <metadata
     id="metadata8">
    <rdf:RDF>
      <cc:Work
         rdf:about="">
        <dc:format>image/svg+xml</dc:format>
        <dc:type
           rdf:resource="http://purl.org/dc/dcmitype/StillImage" />
        <dc:title></dc:title>
      </cc:Work>
    </rdf:RDF>
  </metadata>
  <defs
     id="defs6" />
  <sodipodi:namedview
     pagecolor="#1a262f"
     bordercolor="#666666"
     borderopacity="1"
     objecttolerance="10"
     gridtolerance="10"
     guidetolerance="10"
     inkscape:pageopacity="0"
     inkscape:pageshadow="2"
     inkscape:window-width="1920"
     inkscape:window-height="1017"
     id="namedview4"
     showgrid="false"
     inkscape:zoom="0.30832392"
     inkscape:cx="507.64192"
     inkscape:cy="765.10647"
     inkscape:window-x="-8"
     inkscape:window-y="-8"
     inkscape:window-maximized="1"
     inkscape:current-layer="svg2" />
  <path
     style="fill:#ffffff;stroke-width:0.48393083"
     d="m 43.597253,5.2255018 c -0.107549,1.21e-4 -0.241046,0.017373 -0.407373,0.049148 -0.899918,0.1720277 -1.765588,1.1942493 -1.765588,2.0850595 0,0.6650274 0.402384,0.7233023 1.392245,0.2022685 0.886692,-0.4667174 1.177104,-0.8992789 1.183361,-1.7618082 0.0034,-0.416616 -0.08,-0.5750356 -0.402645,-0.5746678 z"
     id="path3865"
     inkscape:connector-curvature="0" />
  <path
     style="fill:#ffffff;stroke-width:0.48393083"
     d="m 38.89405,5.7387298 c -0.117135,-0.013211 -0.238694,0.013453 -0.359168,0.087906 -0.765254,0.4729456 -0.08219,3.255422 0.73346,2.9877017 0.209803,-0.068858 0.42493,-0.6345688 0.478259,-1.2570828 0.08152,-0.9516694 -0.344955,-1.7612953 -0.852551,-1.8185249 z"
     id="path3861"
     inkscape:connector-curvature="0" />
  <path
     style="fill:#ffffff;stroke-width:0.48393083"
     d="m 36.390275,8.0771223 c -0.335311,0.029326 -0.45085,0.4122461 -0.45085,1.2967797 0,1.623075 1.352258,2.493967 1.715496,1.104916 C 37.878594,9.6235039 37.429066,8.40078 36.802376,8.1602955 36.63767,8.0970941 36.502048,8.067342 36.390275,8.0771223 Z"
     id="path3855"
     inkscape:connector-curvature="0" />
  <path
     style="fill:#ffffff;stroke-width:0.48393083"
     d="m 40.532045,9.1385519 c 0.02463,-0.061348 -0.315939,0.2552155 -0.999056,0.8913041 -0.762225,0.709767 -1.539427,1.580842 -1.726839,1.935723 -0.187441,0.354886 -0.275202,0.572655 -0.194705,0.483931 0.08053,-0.08872 0.857671,-0.959795 1.726839,-1.935723 0.778935,-0.8746231 1.169119,-1.3138823 1.193761,-1.3752351 z"
     id="path3851"
     inkscape:connector-curvature="0" />
  <path
     style="fill:#ffffff;stroke-width:0.48393083"
     d="m 42.953586,9.5534887 c -0.694334,-0.032036 -1.575025,0.1436985 -1.848765,0.4735313 -0.329944,0.397559 -0.267871,0.532871 0.362948,0.785444 1.029998,0.412425 1.006208,0.414525 1.826084,-0.159736 0.397341,-0.278299 0.63903,-0.640933 0.536858,-0.8062337 -0.111062,-0.1797077 -0.460523,-0.273779 -0.877125,-0.2930056 z"
     id="path3849"
     inkscape:connector-curvature="0" />
  <path
     style="fill:#ffffff;stroke-width:0.48393083"
     d="M 8.6918554,9.7614241 9.564252,10.797341 c 0.871724,1.03598 2.178637,4.629539 2.178637,5.989588 0,0.990925 1.748897,4.408237 2.725891,5.326074 0.440536,0.413863 1.551201,1.006315 2.467853,1.316636 1.477214,0.500089 1.578936,0.590003 0.897919,0.792054 -0.422568,0.125377 -1.727715,0.798307 -2.900749,1.496218 -1.410518,0.839208 -2.692634,1.335489 -3.786376,1.465023 l -1.6540612,0.195653 2.3374242,1.391301 c 2.140736,1.273987 5.304158,2.391301 6.770304,2.391301 0.521711,0 0.58169,0.239449 0.497161,1.990538 l -0.09641,1.989599 -6.049131,-0.07751 -6.049135,-0.07751 v 1.18431 1.183361 l 11.8563,-0.212664 c 6.520968,-0.117145 12.509612,-0.09145 13.308098,0.05671 1.386428,0.257253 1.456356,0.32314 1.55198,1.471638 l 0.100189,1.202269 h 3.852544 3.8516 v -3.709824 -3.709814 h -3.8516 -3.852544 l -0.100189,1.206038 c -0.09385,1.130492 -0.180753,1.220004 -1.390352,1.43289 -0.709767,0.124922 -3.214109,0.235515 -5.565205,0.245745 l -4.27504,0.01892 V 33.28122 31.207504 l 1.693758,-0.352553 c 3.431229,-0.713111 6.34083,-2.630793 7.58127,-4.997152 0.302263,-0.576603 0.609032,-2.271644 0.73724,-4.073715 0.12076,-1.697397 0.42206,-3.499105 0.669184,-4.003768 0.652339,-1.332082 1.935389,-2.151542 3.676737,-2.347824 1.136526,-0.128097 1.393518,-0.2465 1.004728,-0.46408 -0.287329,-0.160791 -0.533253,-0.61241 -0.547258,-1.002835 -0.01418,-0.397153 -0.101597,-0.520071 -0.197546,-0.27977 -0.126209,0.316156 -0.395826,0.216893 -1.022681,-0.376179 -1.476889,-1.397312 -2.714663,-1.267734 -4.887513,0.51134 -3.263048,2.671724 -4.174295,3.145551 -6.046299,3.145551 -2.133167,0 -3.222863,-0.545473 -5.792991,-2.89697 -2.718946,-2.48768 -5.448301,-3.833109 -8.314725,-4.0992326 z"
     id="path3847"
     inkscape:connector-curvature="0" />
  <path
     style="fill:#ffffff;stroke-width:0.48393083"
     d="m 40.249434,11.88995 c -0.189531,0.015 -0.390522,0.08323 -0.645554,0.199433 -0.680634,0.310117 -0.756398,0.460494 -0.431003,0.852551 0.435025,0.524184 1.837829,0.6255 2.535914,0.183366 0.349785,-0.221544 0.259774,-0.404518 -0.416825,-0.847828 -0.443643,-0.290697 -0.726641,-0.412526 -1.042532,-0.387522 z"
     id="path3835"
     inkscape:connector-curvature="0" />
  <path
     style="fill:#ffffff;stroke-width:0.48393083"
     d="m 37.058515,16.470283 c -0.05835,-0.02173 -0.100188,0.163525 -0.100188,0.496218 0,0.4436 0.07308,0.624445 0.162572,0.402645 0.08949,-0.2218 0.08949,-0.584434 0,-0.806239 -0.02236,-0.05545 -0.04293,-0.08538 -0.06238,-0.09262 z"
     id="path3829"
     inkscape:connector-curvature="0" />
  <path
     style="fill:#ffffff;stroke-width:0.48393083"
     d="m 37.436586,29.5477 c -3.514305,0 -4.365462,0.08938 -4.513221,0.47448 -0.100173,0.261027 0.03963,0.696565 0.310965,0.967862 0.667955,0.667955 7.44302,0.713202 8.342134,0.05576 0.366109,-0.26772 0.518799,-0.643013 0.394138,-0.967862 -0.17496,-0.455898 -0.812617,-0.53024 -4.534016,-0.53024 z"
     id="path3799"
     inkscape:connector-curvature="0" />
  <path
     style="fill:#ffffff;stroke-width:0.48393083"
     d="m 20.925283,31.194183 c 0.46891,-0.01878 0.496218,0.278846 0.496218,2.040635 0,1.915306 -0.06277,2.120033 -0.655005,2.120033 -0.360432,0 -0.732333,-0.199888 -0.826085,-0.444234 -0.09376,-0.244347 -0.124922,-1.152346 -0.06995,-2.017004 0.08572,-1.348343 0.202578,-1.586437 0.825141,-1.674856 0.0862,-0.01224 0.162692,-0.02187 0.229678,-0.02458 z"
     id="path3795"
     inkscape:connector-curvature="0" />
  <path
     style="fill:#ffffff;stroke-width:0.48393083"
     d="m 4.5982943,34.417235 c -0.5884889,-0.03842 -0.5982982,0.175725 -0.5982982,1.743849 0,1.792146 0.012534,1.816173 0.8875194,1.715496 0.8359566,-0.09619 0.8875243,-0.195575 0.8875243,-1.715496 0,-1.51992 -0.051568,-1.61931 -0.8875243,-1.715496 -0.1093683,-0.01258 -0.2051528,-0.02289 -0.2892212,-0.02836 z"
     id="path3791"
     inkscape:connector-curvature="0" />
  <path
     style="fill:#ffffff;stroke-width:0.48393083"
     d="m 37.352465,40.838769 c -2.898746,0 -3.728431,0.104641 -4.14271,0.5189 -0.400017,0.400027 -0.433722,0.620617 -0.145556,0.967862 0.283903,0.342081 1.371058,0.448962 4.538739,0.448962 3.567088,0 4.193255,-0.0758 4.367664,-0.530248 0.401338,-1.045867 -0.779666,-1.405476 -4.618137,-1.405476 z"
     id="rect3705"
     inkscape:connector-curvature="0" />
</svg>
