<?xml version="1.0" encoding="UTF-8" standalone="no"?>
<!-- Created with Inkscape (http://www.inkscape.org/) -->

<svg
   xmlns:dc="http://purl.org/dc/elements/1.1/"
   xmlns:cc="http://creativecommons.org/ns#"
   xmlns:rdf="http://www.w3.org/1999/02/22-rdf-syntax-ns#"
   xmlns:svg="http://www.w3.org/2000/svg"
   xmlns="http://www.w3.org/2000/svg"
   xmlns:sodipodi="http://sodipodi.sourceforge.net/DTD/sodipodi-0.dtd"
   xmlns:inkscape="http://www.inkscape.org/namespaces/inkscape"
   version="1.1"
   id="svg2"
   width="48"
   height="48"
   viewBox="0 0 48.000002 48"
   sodipodi:docname="infinity.svg"
   inkscape:version="0.92.1 r15371">
  <metadata
     id="metadata8">
    <rdf:RDF>
      <cc:Work
         rdf:about="">
        <dc:format>image/svg+xml</dc:format>
        <dc:type
           rdf:resource="http://purl.org/dc/dcmitype/StillImage" />
        <dc:title></dc:title>
      </cc:Work>
    </rdf:RDF>
  </metadata>
  <defs
     id="defs6" />
  <sodipodi:namedview
     pagecolor="#1a262f"
     bordercolor="#666666"
     borderopacity="1"
     objecttolerance="10"
     gridtolerance="10"
     guidetolerance="10"
     inkscape:pageopacity="0"
     inkscape:pageshadow="2"
     inkscape:window-width="1920"
     inkscape:window-height="1017"
     id="namedview4"
     showgrid="false"
     inkscape:zoom="1.7441434"
     inkscape:cx="32.980449"
     inkscape:cy="102.81321"
     inkscape:window-x="-8"
     inkscape:window-y="-8"
     inkscape:window-maximized="1"
     inkscape:current-layer="svg2" />
  <path
     style="fill:#ffffff;stroke-width:0.36603975"
     d="m 13.735887,13.802372 c -0.3092,7e-5 -0.6236,0.014 -0.9422,0.0408 -2.3864,0.20007 -4.2977004,1.00775 -5.8424004,2.46863 -2.2814,2.1577 -3.102,4.53648 -2.929,8.49183 0.088,2.0026 0.209,2.5365 0.8908,3.92135 0.9834,1.99748 2.9189,3.83018 4.8657,4.60695 1.1287004,0.45034 1.8794004,0.56077 3.8478004,0.56622 2.273,0.006 2.5594,-0.0493 4.0564,-0.78641 1.8943,-0.93266 1.9529,-0.93994 2.5273,-0.30527 0.2429,0.26843 0.5718,0.48829 0.7313,0.48829 0.344,0 1.4613,-6.32541 1.1682,-6.61374 -0.2826,-0.27798 -6.4143,1.52284 -6.4143,1.88382 0,0.16606 0.2981,0.53589 0.662,0.82215 0.8025,0.6312 0.5815,0.83403 -1.349,1.23753 -2.7506,0.57491 -5.6082004,-0.56029 -6.9705004,-2.76889 -1.3312,-2.15828 -1.1527,-6.37462 0.3582,-8.46038 1.3984,-1.93039 4.5213004,-2.8674 7.0770004,-2.12331 2.5629,0.74619 4.6683,2.97003 6.9469,7.33724 2.3501,4.50434 4.4211,6.79651 7.5288,8.33241 2.4543,1.21299 4.2488,1.50093 6.6173,1.06309 4.6513,-0.85983 7.4422,-4.6038 7.4338,-9.97316 -0.01,-5.21024 -2.3363,-8.46527 -7.057,-9.86592 -2.6712,-0.79254 -6.1046,-0.23963 -8.3346,1.34191 -1.4908,1.0573 -3.3958,2.93493 -3.3958,3.34726 0,0.52804 1.2644,2.72749 1.5642,2.72099 0.1464,-0.003 0.5734,-0.421 0.9487,-0.92868 2.9752,-4.02492 8.1248,-4.84603 11.1871,-1.78373 1.3304,1.3304 1.9181,2.95924 1.9181,5.31544 0,4.07521 -2.4102,6.79908 -5.966,6.74243 -3.8413,-0.0612 -6.665,-2.27303 -9.2997,-7.28505 -3.5808,-6.81191 -7.1906,-9.83474 -11.8291,-9.83375 z"
     id="path4259"
     inkscape:connector-curvature="0" />
</svg>
