<?xml version="1.0" encoding="UTF-8" standalone="no"?>
<!-- Created with Inkscape (http://www.inkscape.org/) -->

<svg
   xmlns:dc="http://purl.org/dc/elements/1.1/"
   xmlns:cc="http://creativecommons.org/ns#"
   xmlns:rdf="http://www.w3.org/1999/02/22-rdf-syntax-ns#"
   xmlns:svg="http://www.w3.org/2000/svg"
   xmlns="http://www.w3.org/2000/svg"
   xmlns:sodipodi="http://sodipodi.sourceforge.net/DTD/sodipodi-0.dtd"
   xmlns:inkscape="http://www.inkscape.org/namespaces/inkscape"
   version="1.1"
   id="svg2"
   width="48"
   height="48"
   viewBox="0 0 48.000002 48"
   sodipodi:docname="food.svg"
   inkscape:version="0.92.1 r15371">
  <metadata
     id="metadata8">
    <rdf:RDF>
      <cc:Work
         rdf:about="">
        <dc:format>image/svg+xml</dc:format>
        <dc:type
           rdf:resource="http://purl.org/dc/dcmitype/StillImage" />
        <dc:title></dc:title>
      </cc:Work>
    </rdf:RDF>
  </metadata>
  <defs
     id="defs6" />
  <sodipodi:namedview
     pagecolor="#1a262f"
     bordercolor="#666666"
     borderopacity="1"
     objecttolerance="10"
     gridtolerance="10"
     guidetolerance="10"
     inkscape:pageopacity="0"
     inkscape:pageshadow="2"
     inkscape:window-width="1920"
     inkscape:window-height="1017"
     id="namedview4"
     showgrid="false"
     inkscape:zoom="0.43603586"
     inkscape:cx="586.33882"
     inkscape:cy="560.99578"
     inkscape:window-x="-8"
     inkscape:window-y="-8"
     inkscape:window-maximized="1"
     inkscape:current-layer="svg2" />
  <path
     style="fill:#ffffff;stroke-width:0.42803103"
     d="m 31.736743,6.9404672 c -0.57589,0.016522 -1.140891,0.6401932 -1.713798,1.8835034 -0.847942,1.8401954 -1.146181,4.6049334 -0.656257,6.0894134 0.175339,0.531281 0.827726,1.642706 1.449621,2.470372 1.271244,1.69187 1.702087,2.911985 1.50396,4.261918 -0.132981,0.906043 -0.119326,0.91876 1.025768,0.91876 1.090246,0 1.172141,-0.05857 1.340105,-0.953871 0.09836,-0.524321 0.04101,-1.454728 -0.12707,-2.068259 C 34.257585,18.441639 34.08014,18.125971 32.393,15.702566 31.228448,14.029808 31.193186,11.740005 32.296025,9.387435 33.030467,7.8207387 33.037739,7.7526604 32.530103,7.293259 32.262112,7.0507323 31.99851,6.932951 31.736743,6.9404672 Z"
     id="path4803"
     inkscape:connector-curvature="0" />
  <path
     style="fill:#ffffff;stroke-width:0.42803103"
     d="m 16.172966,6.9521525 c -0.711726,0.057305 -1.473976,1.0759672 -2.160221,2.9101058 -1.099766,2.9393957 -0.626809,5.1892127 1.758942,8.3758647 0.789062,1.053958 0.924311,1.469594 0.911239,2.795578 l -0.01507,1.557464 1.156184,-0.08444 1.157024,-0.08527 -0.0017,-1.754756 c -0.0013,-1.619935 -0.104251,-1.906284 -1.335923,-3.71016 C 16.90947,15.88159 16.162226,14.61675 15.983138,14.145916 15.557436,13.026687 15.854066,11.083422 16.712965,9.3631699 17.453981,7.8790194 17.393817,7.2781409 16.474706,6.9864292 16.375446,6.9549261 16.274585,6.9439685 16.17291,6.9521439 Z"
     id="path4801"
     inkscape:connector-curvature="0" />
  <path
     style="fill:#ffffff;stroke-width:0.42803103"
     d="m 23.915144,7.0156851 c -0.922942,0.074139 -1.76074,1.3977696 -2.378415,3.8088079 -0.641995,2.505934 -0.240446,4.251984 1.523187,6.625287 1.240648,1.669531 1.342614,1.933609 1.342614,3.47357 v 1.666976 l 1.141974,-0.08443 1.141139,-0.08444 0.08527,-1.481386 c 0.09517,-1.645651 -0.497577,-3.101727 -2.050705,-5.034376 -0.80802,-1.00548 -0.88783,-1.288699 -0.88783,-3.144192 0,-1.538746 0.157635,-2.359346 0.642046,-3.342319 0.783588,-1.590071 0.795239,-1.8766292 0.09196,-2.253014 -0.220436,-0.1179792 -0.438252,-0.1675923 -0.65124,-0.1504839 z"
     id="path4799"
     inkscape:connector-curvature="0" />
  <path
     style="fill:#ffffff;stroke-width:0.42803103"
     d="m 3.999999,24.276164 v 0.849377 c 0,2.043475 2.0799054,6.103855 4.5846103,8.949353 1.4354187,1.630726 4.7960877,3.901075 7.0892637,4.790271 1.357269,0.526294 1.738041,0.804519 1.738041,1.269883 0,0.327769 0.08729,0.68419 0.194789,0.79169 0.107504,0.107504 3.09302,0.16082 6.634481,0.11871 6.353303,-0.07554 6.438545,-0.08425 6.357763,-0.67465 -0.09942,-0.726599 0.200626,-0.971305 2.222084,-1.811607 5.184547,-2.155174 10.165899,-8.084684 10.980836,-13.070826 l 0.198132,-1.212201 H 23.999581 Z"
     id="path4759"
     inkscape:connector-curvature="0" />
</svg>
